<svg xmlns="http://www.w3.org/2000/svg" viewBox="0 0 512 512" width="512" height="512"><path d="M309.7 100.0 A165.0 165.0 0 1 0 372.7 139.3" fill="none" stroke="#C73E2C" stroke-width="46.0" stroke-linecap="round"/><path d="M780 -604 795 -626Q798 -631 806 -642Q813 -652 818 -657Q823 -662 827 -662Q835 -662 868 -634Q900 -607 914 -589Q919 -584 919 -578Q919 -572 913 -567Q906 -562 894 -562H602Q541 -561 470 -551H464Q450 -551 444 -564L440 -571Q437 -577 437 -582Q437 -588 442 -592Q448 -596 457 -595Q484 -592 539 -590H572Q582 -590 588 -596Q593 -601 593 -611V-679Q593 -689 588 -694Q582 -700 572 -700H531Q481 -698 437 -690Q434 -689 430 -689Q417 -689 411 -702L407 -710Q404 -716 404 -722Q404 -728 409 -732Q414 -735 423 -734Q457 -731 526 -729H572Q593 -729 593 -750Q591 -807 588 -831V-833Q588 -844 594 -848Q601 -853 612 -850Q678 -835 703 -826Q728 -817 728 -810Q728 -806 720 -801L717 -799Q703 -790 703 -774V-750Q703 -740 708 -734Q714 -729 724 -729H769Q785 -729 794 -742L811 -767Q815 -773 823 -784Q831 -795 836 -800Q841 -806 845 -806Q853 -806 888 -776Q922 -747 937 -728Q942 -721 942 -716Q942 -710 936 -705Q928 -700 917 -700H724Q714 -700 708 -694Q703 -689 703 -679V-611Q703 -601 708 -596Q714 -590 724 -590H755Q771 -590 780 -604ZM257 -791 270 -811Q273 -815 280 -825Q287 -835 292 -840Q296 -845 300 -845Q308 -845 338 -820Q369 -794 382 -776Q387 -769 387 -764Q387 -758 381 -753Q374 -748 363 -748H260Q199 -747 128 -737H122Q108 -737 102 -750L98 -758Q95 -764 95 -770Q95 -776 100 -780Q105 -783 114 -782Q141 -779 196 -777H232Q248 -777 257 -791ZM172 -622Q125 -620 84 -612Q82 -611 77 -611Q64 -611 58 -625L55 -631Q52 -637 52 -643Q52 -649 57 -652Q62 -656 71 -655Q105 -652 174 -650H274Q290 -650 299 -663L313 -684Q317 -690 324 -700Q331 -709 336 -714Q340 -718 344 -718Q351 -718 380 -692Q410 -667 424 -649Q429 -642 429 -637Q429 -632 424 -627Q416 -622 404 -622ZM261 -534 274 -553Q279 -559 285 -568Q291 -577 295 -582Q299 -586 303 -586Q311 -586 339 -562Q367 -537 380 -519Q385 -512 385 -508Q385 -502 380 -497Q373 -492 362 -492H257Q196 -491 125 -481H119Q105 -481 99 -494L95 -502Q92 -508 92 -514Q92 -520 97 -524Q102 -527 111 -526Q139 -523 197 -521H236Q252 -521 261 -534ZM828 -485 843 -502Q847 -507 858 -519Q869 -531 875 -531Q882 -531 914 -502Q945 -472 960 -451Q964 -446 964 -440Q964 -430 954 -427L945 -425Q930 -424 919 -414Q872 -372 820 -343Q804 -335 800 -339Q797 -342 798 -347Q798 -351 791 -348Q782 -338 782 -327V-57Q782 -48 786 -44Q789 -40 800 -40H832Q857 -40 862 -41Q869 -42 872 -44Q875 -46 879 -52Q889 -69 911 -154Q913 -162 916 -167Q920 -172 922 -172Q924 -172 926 -166Q928 -161 928 -151L931 -63Q931 -55 934 -50Q937 -45 945 -38Q954 -31 957 -22Q960 -14 960 -2Q960 32 928 48Q895 65 822 65H766Q727 65 708 56Q689 48 682 29Q676 10 676 -28V-206Q676 -302 668 -365V-367Q668 -377 674 -382Q679 -388 689 -386L786 -375H789Q806 -375 810 -392L818 -422L819 -428Q819 -436 814 -440Q808 -445 799 -445H515Q495 -445 495 -432V-420Q495 -358 465 -328Q451 -314 428 -314Q413 -314 400 -322Q387 -329 381 -343L380 -346Q379 -349 376 -356Q373 -364 370 -364L362 -363H257Q194 -362 125 -352H120Q106 -352 99 -365L96 -371Q93 -377 93 -383Q93 -396 112 -395Q140 -392 197 -390H236Q252 -390 261 -403L287 -438Q295 -448 303 -448Q310 -448 317 -442Q353 -409 363 -399Q371 -393 376 -393Q384 -393 392 -403Q399 -412 411 -419Q426 -432 442 -454Q458 -476 464 -498Q469 -518 474 -518Q482 -516 486 -500L488 -492Q491 -473 510 -473H802Q819 -473 828 -485ZM500 -365Q500 -374 506 -378Q512 -382 522 -380L582 -369Q648 -364 648 -353Q648 -349 637 -342L633 -339Q619 -330 618 -315Q611 -225 590 -154Q568 -84 517 -23Q466 38 377 80Q358 88 355 82L354 79Q354 72 366 63Q471 -26 500 -176Q508 -221 508 -269Q508 -313 501 -360ZM277 -277 288 -290Q291 -293 297 -301Q303 -309 308 -312Q312 -316 316 -316Q324 -316 354 -294Q384 -271 400 -254Q405 -247 405 -243Q405 -235 396 -230Q394 -228 392 -228Q383 -223 379 -218Q375 -213 375 -204V-140Q378 -45 380 3V8Q380 22 370 28Q356 38 334 46Q311 53 292 53Q275 53 275 32V27Q275 17 270 12Q264 6 254 6H209Q199 6 194 12Q188 17 188 27V54Q188 59 175 67Q162 75 142 81Q123 87 104 87Q94 87 88 81Q83 75 83 67Q87 23 89 -45V-111Q89 -207 80 -285V-289Q80 -305 93 -305Q99 -305 103 -303L180 -270Q191 -265 205 -265H251Q268 -265 277 -277ZM188 -215V-43Q188 -33 194 -28Q199 -22 209 -22H254Q264 -22 270 -28Q275 -33 275 -43V-215Q275 -225 270 -230Q264 -236 254 -236H209Q199 -236 194 -230Q188 -225 188 -215Z" fill="#1E1B16" transform="translate(166.66 325.20) scale(0.17587)"/></svg>