<svg xmlns="http://www.w3.org/2000/svg" viewBox="0 0 976 205" width="976" height="205">
<g transform="scale(0.25)"><path d="M284.9996337890625 0.0V-302.66595458984375L15.33306884765625 -720.0H172.00146484375L392.33428955078125 -350.66595458984375H321.6666259765625L541.332763671875 -720.0H684.6676635742188L415.0010986328125 -302.66595458984375V0.0Z M1137.0001220703125 10.0Q1058.6666870117188 10.0 992.833251953125 -17.166656494140625Q926.9998168945312 -44.33331298828125 878.6664123535156 -94.1666259765625Q830.3330078125 -143.99993896484375 803.4996337890625 -212.33328247070312Q776.666259765625 -280.6666259765625 776.666259765625 -363.0Q776.666259765625 -472.00006103515625 822.6663208007812 -554.6667175292969Q868.6663818359375 -637.3333740234375 950.16650390625 -683.6666870117188Q1031.6666259765625 -730.0 1136.0001220703125 -730.0Q1242.3336181640625 -730.0 1323.5003967285156 -683.6666870117188Q1404.6671752929688 -637.3333740234375 1451.0005798339844 -554.3333740234375Q1497.333984375 -471.3333740234375 1497.333984375 -362.0Q1497.333984375 -280.33331298828125 1470.5006103515625 -211.99996948242188Q1443.667236328125 -143.6666259765625 1395.3338317871094 -93.99996948242188Q1347.0004272460938 -44.33331298828125 1281.0003356933594 -17.166656494140625Q1215.000244140625 10.0 1137.0001220703125 10.0ZM1136.0001220703125 -96.0009765625Q1203.66650390625 -96.0009765625 1255.1662902832031 -130.16751098632812Q1306.6660766601562 -164.33404541015625 1335.9992980957031 -224.66714477539062Q1365.33251953125 -285.000244140625 1365.33251953125 -364.0Q1365.33251953125 -441.999755859375 1336.4992980957031 -500.66619873046875Q1307.6660766601562 -559.3326416015625 1256.1662902832031 -591.6658325195312Q1204.66650390625 -623.9990234375 1136.0001220703125 -623.9990234375Q1068.0004272460938 -623.9990234375 1016.6672973632812 -591.6658325195312Q965.3341674804688 -559.3326416015625 937.0009460449219 -501.16619873046875Q908.667724609375 -442.999755859375 908.667724609375 -364.0Q908.667724609375 -284.000244140625 937.5009460449219 -223.83380126953125Q966.3341674804688 -163.6673583984375 1017.6672973632812 -129.83416748046875Q1069.0004272460938 -96.0009765625 1136.0001220703125 -96.0009765625Z M1635.999267578125 0.0V-720.0H1797.0015869140625L2147.9996948242188 -93.9993896484375L2111.332275390625 -85.33251953125V-720.0H2237.333740234375V0.0H2076.3314208984375L1725.3333129882812 -626.0006103515625L1762.000732421875 -634.66748046875V0.0Z M2480.0001831054688 0.0V-104.0009765625H2665.6666259765625Q2747.6663818359375 -104.0009765625 2805.6661682128906 -137.16754150390625Q2863.6659545898438 -170.3341064453125 2894.332489013672 -229.00054931640625Q2924.9990234375 -287.6669921875 2924.9990234375 -364.0Q2924.9990234375 -439.3330078125 2894.6658325195312 -495.99945068359375Q2864.3326416015625 -552.6658935546875 2806.49951171875 -584.3324584960938Q2748.6663818359375 -615.9990234375 2665.6666259765625 -615.9990234375H2482.000244140625V-720.0H2665.6666259765625Q2784.0001220703125 -720.0 2872.000244140625 -676.1666870117188Q2960.0003662109375 -632.3333740234375 3008.5004272460938 -551.8333740234375Q3057.00048828125 -471.3333740234375 3057.00048828125 -362.0Q3057.00048828125 -252.6666259765625 3008.0004272460938 -171.1666259765625Q2959.0003662109375 -89.6666259765625 2871.500244140625 -44.83331298828125Q2784.0001220703125 0.0 2666.6666259765625 0.0ZM2400.999267578125 0.0V-720.0H2531.000732421875V0.0Z M3161.999755859375 0.0 3426.666015625 -720.0H3538.667236328125L3290.3345947265625 0.0ZM3704.66552734375 0.0 3456.9995727539062 -720.0H3574.66748046875L3839.333740234375 0.0ZM3298.6663818359375 -282.999755859375H3693.3336181640625V-178.998779296875H3298.6663818359375Z" fill="#1E1B16" transform="translate(24.66693115234375 770)"/></g>
</svg>