<svg xmlns="http://www.w3.org/2000/svg" viewBox="0 0 962 211" width="962" height="211"><g transform="scale(0.24)"><path d="M285 0V-303L15 -720H172L392 -351H322L541 -720H685L415 -303V0Z" fill="#1E1B16" transform="translate(70 800)"/><path d="M62 0V-720H223L574 -94L537 -85V-720H663V0H502L151 -626L188 -635V0Z" fill="#1E1B16" transform="translate(1644 800)"/><path d="M141 0V-104H327Q409 -104 467 -137Q525 -170 555 -229Q586 -288 586 -364Q586 -439 556 -496Q525 -553 467 -584Q410 -616 327 -616H143V-720H327Q445 -720 533 -676Q621 -632 670 -552Q718 -471 718 -362Q718 -253 669 -171Q620 -90 533 -45Q445 0 328 0ZM62 0V-720H192V0Z" fill="#1E1B16" transform="translate(2409 800)"/><path d="M28 0 293 -720H405L156 0ZM571 0 323 -720H441L705 0ZM165 -283H559V-179H165Z" fill="#1E1B16" transform="translate(3204 800)"/><circle cx="1207.0" cy="440.0" r="320.0" fill="none" stroke="#C73E2C" stroke-width="100.0"/></g></svg>